<svg id="visual" viewBox="0 0 900 600" width="900" height="600" xmlns="http://www.w3.org/2000/svg" xmlns:xlink="http://www.w3.org/1999/xlink" version="1.1"><rect x="0" y="0" width="900" height="600" fill="#B5C9C0"></rect><path d="M0 218L129 160L257 198L386 236L514 185L643 175L771 214L900 211L900 601L771 601L643 601L514 601L386 601L257 601L129 601L0 601Z" fill="#ff55ff"></path><path d="M0 229L129 219L257 239L386 202L514 233L643 269L771 243L900 251L900 601L771 601L643 601L514 601L386 601L257 601L129 601L0 601Z" fill="#ff57d8"></path><path d="M0 303L129 249L257 256L386 287L514 265L643 307L771 256L900 268L900 601L771 601L643 601L514 601L386 601L257 601L129 601L0 601Z" fill="#ff66b8"></path><path d="M0 323L129 295L257 314L386 294L514 321L643 286L771 319L900 324L900 601L771 601L643 601L514 601L386 601L257 601L129 601L0 601Z" fill="#ff79a0"></path><path d="M0 326L129 381L257 333L386 330L514 379L643 350L771 337L900 336L900 601L771 601L643 601L514 601L386 601L257 601L129 601L0 601Z" fill="#ff8d93"></path><path d="M0 389L129 369L257 403L386 384L514 368L643 405L771 387L900 372L900 601L771 601L643 601L514 601L386 601L257 601L129 601L0 601Z" fill="#fb9f90"></path><path d="M0 441L129 419L257 411L386 424L514 424L643 426L771 436L900 444L900 601L771 601L643 601L514 601L386 601L257 601L129 601L0 601Z" fill="#f2af95"></path><path d="M0 453L129 461L257 465L386 489L514 464L643 486L771 452L900 487L900 601L771 601L643 601L514 601L386 601L257 601L129 601L0 601Z" fill="#e8bea1"></path><path d="M0 517L129 528L257 497L386 511L514 518L643 497L771 526L900 527L900 601L771 601L643 601L514 601L386 601L257 601L129 601L0 601Z" fill="#e0cbb4"></path><path d="M0 559L129 555L257 564L386 547L514 557L643 546L771 547L900 551L900 601L771 601L643 601L514 601L386 601L257 601L129 601L0 601Z" fill="#dbd5ca"></path></svg>